<svg viewBox="0 0 42 42" fill="none" xmlns="http://www.w3.org/2000/svg">
<path d="M42 21C42 9.40201 32.5981 0 21.0001 0C9.40204 0 0 9.40201 0 21C0 32.598 9.40204 42 21.0001 42C32.5981 42 42 32.598 42 21Z" fill="url(#paint0_linear_28_37)"/>
<path d="M24.1684 13.9589C26.1074 10.0007 29.0385 8.07873 32.6538 10.2895C36.4767 12.6272 37.2983 17.9815 34.1703 21.1699L23.2094 31.8991L19.0186 28.1251L20.1861 23.9379L21.9197 19.2348L22.5226 17.712L24.1684 13.9589Z" fill="white"/>
<path d="M10.7482 18.247L9.16211 18.2468L11.8466 24.1268L17.1674 30.5952L18.1228 31.5333L18.3544 31.7492L18.5861 31.9597L18.8466 32.1587L19.2809 32.443L19.5703 32.5851L20.3231 32.784L21.2495 32.8125L21.6838 32.7272L22.0891 32.5851L22.5523 32.3577L23.2471 31.8744L28.395 26.8167L10.7482 18.247Z" fill="white"/>
<path d="M10.2625 10.3341C8.94896 10.6049 8.40685 11.1674 8.40685 11.1674L7.3435 12.1257L6.27849 13.3186C5.83915 13.9774 5.88794 14.3434 6.49816 15.2705L11.7489 23.9806L14.9682 12.1963C14.9682 11.2954 14.3074 10.7924 13.1864 10.5373C13.1864 10.5373 11.5761 10.0632 10.2625 10.3341Z" fill="white"/>
<defs>
<linearGradient id="paint0_linear_28_37" x1="21.0001" y1="0" x2="21.0001" y2="42" gradientUnits="userSpaceOnUse">
<stop stop-color="#50A76C"/>
<stop offset="1" stop-color="#004842"/>
</linearGradient>
</defs>
</svg>