<svg viewBox="0 0 195 48" fill="none" xmlns="http://www.w3.org/2000/svg">
<path d="M60.4287 12.6144H67.7774C69.3721 12.6144 70.7187 12.8985 71.8163 13.4667C72.9143 14.0246 73.738 14.8148 74.2866 15.8376C74.8356 16.8603 75.1103 18.038 75.1103 19.3707C75.1103 20.6929 74.8356 21.8603 74.2866 22.8727C73.738 23.8747 72.9143 24.6599 71.8163 25.228C70.7187 25.7859 69.3824 26.0648 67.8083 26.0648H61.6249V24.0504H67.7149C68.875 24.0504 69.8436 23.8592 70.6201 23.477C71.3971 23.0948 71.9719 22.5576 72.3447 21.8654C72.7279 21.1733 72.9194 20.3417 72.9194 19.3707C72.9194 18.3893 72.7279 17.5421 72.3447 16.8293C71.9719 16.1062 71.392 15.5534 70.6047 15.1712C69.8277 14.7786 68.8544 14.5825 67.684 14.5825H62.635V35.0525H60.4287V12.6144ZM76.0424 35.0525H73.4633L67.9947 24.9337H70.5113L76.0424 35.0525ZM85.5657 35.3934C84.1159 35.3934 82.816 35.0266 81.6661 34.2932C80.527 33.5596 79.6416 32.537 79.0099 31.2249C78.3777 29.9027 78.0619 28.3944 78.0619 26.7002C78.0619 24.9957 78.3777 23.4873 79.0099 22.1754C79.6416 20.8531 80.527 19.8251 81.6661 19.0917C82.816 18.3582 84.1159 17.9915 85.5657 17.9915C87.016 17.9915 88.3056 18.3582 89.4344 19.0917C90.5736 19.8251 91.4538 20.8531 92.0753 22.1754C92.7074 23.4873 93.0233 24.9957 93.0233 26.7002C93.0233 28.3944 92.7074 29.9027 92.0753 31.2249C91.4538 32.537 90.5736 33.5596 89.4344 34.2932C88.3056 35.0266 87.016 35.3934 85.5657 35.3934ZM85.5657 33.5028C86.6843 33.5028 87.6477 33.1981 88.4556 32.5886C89.2634 31.9791 89.8746 31.1578 90.2886 30.1247C90.703 29.0917 90.9104 27.9501 90.9104 26.7002C90.9104 25.4502 90.703 24.3086 90.2886 23.2756C89.8746 22.2425 89.2634 21.4212 88.4556 20.8117C87.6477 20.1919 86.6843 19.8819 85.5657 19.8819C84.4471 19.8819 83.4841 20.1919 82.6763 20.8117C81.8684 21.4212 81.2521 22.2425 80.8274 23.2756C80.4027 24.3086 80.1906 25.4502 80.1906 26.7002C80.1906 27.9501 80.3976 29.0917 80.812 30.1247C81.2367 31.1578 81.8526 31.9791 82.6604 32.5886C83.479 33.1981 84.4471 33.5028 85.5657 33.5028ZM107.472 18.2239H109.553V35.0525H107.472V32.2477H107.301C106.876 33.1465 106.234 33.8747 105.374 34.4326C104.515 34.9904 103.484 35.2694 102.283 35.2694C101.195 35.2694 100.232 35.0318 99.3927 34.5566C98.5643 34.071 97.9116 33.3685 97.4354 32.4491C96.9691 31.5194 96.736 30.3986 96.736 29.0865V18.2239H98.8493V28.9626C98.8493 29.7993 99.0198 30.5432 99.3618 31.194C99.7141 31.8344 100.195 32.3355 100.807 32.6971C101.428 33.0483 102.127 33.2239 102.904 33.2239C103.681 33.2239 104.416 33.0431 105.11 32.6816C105.804 32.3097 106.369 31.7674 106.804 31.0546C107.249 30.3418 107.472 29.4998 107.472 28.5286V18.2239ZM120.91 20.0215H112.723V18.2239H120.91V20.0215ZM117.368 14.195V30.5741C117.368 31.2457 117.477 31.7777 117.694 32.1702C117.922 32.5628 118.217 32.8468 118.579 33.0225C118.953 33.1877 119.377 33.2704 119.853 33.2704C120.31 33.2704 120.776 33.2549 121.252 33.2239V35.1919C120.827 35.2642 120.294 35.3004 119.652 35.3004C118.895 35.3004 118.18 35.1351 117.508 34.8044C116.835 34.4739 116.286 33.9884 115.861 33.3479C115.447 32.7074 115.24 31.9481 115.24 31.07V14.195H117.368ZM124.763 18.2239H126.876V35.0525H124.763V18.2239ZM125.804 15.3572C125.535 15.3572 125.281 15.2953 125.043 15.1712C124.804 15.037 124.618 14.8562 124.484 14.6289C124.348 14.3913 124.282 14.1434 124.282 13.8851C124.282 13.6165 124.348 13.3737 124.484 13.1568C124.618 12.9295 124.804 12.7539 125.043 12.6299C125.281 12.4956 125.535 12.4285 125.804 12.4285C126.104 12.4285 126.373 12.4956 126.612 12.6299C126.85 12.7539 127.036 12.9295 127.171 13.1568C127.305 13.3737 127.373 13.6165 127.373 13.8851C127.373 14.1434 127.305 14.3913 127.171 14.6289C127.036 14.8562 126.85 15.037 126.612 15.1712C126.373 15.2953 126.104 15.3572 125.804 15.3572ZM133.556 35.0525H131.444V18.2239H133.494V20.8737H133.666C134.101 19.9647 134.732 19.2622 135.561 18.7663C136.399 18.26 137.43 18.0069 138.652 18.0069C139.802 18.0069 140.802 18.2446 141.651 18.7197C142.511 19.1847 143.173 19.8819 143.639 20.8117C144.115 21.7415 144.354 22.8675 144.354 24.1898V35.0525H142.241V24.3138C142.241 23.415 142.07 22.6351 141.728 21.9739C141.397 21.3128 140.915 20.8066 140.284 20.4554C139.662 20.0938 138.921 19.913 138.062 19.913C137.191 19.913 136.415 20.1041 135.731 20.4863C135.048 20.8583 134.514 21.4006 134.131 22.1134C133.748 22.8159 133.556 23.6475 133.556 24.6083V35.0525ZM149.295 12.6144H162.484V14.5825H151.5V22.8417H161.785V24.7942H151.5V33.069H162.67V35.0525H149.295V12.6144ZM166.773 18.2239H168.823V20.8272H168.979C169.321 19.9492 169.906 19.2518 170.734 18.7353C171.562 18.2188 172.494 17.9605 173.53 17.9605C173.934 17.9605 174.302 17.976 174.634 18.0069V20.1299C174.54 20.1093 174.369 20.0835 174.121 20.0524C173.873 20.0215 173.624 20.006 173.375 20.006C172.536 20.006 171.775 20.1919 171.091 20.5638C170.408 20.9254 169.869 21.4316 169.475 22.0823C169.082 22.7228 168.885 23.4461 168.885 24.2518V35.0525H166.773V18.2239ZM186.767 22.3768C186.58 21.5711 186.171 20.946 185.539 20.5018C184.908 20.0473 184.085 19.82 183.069 19.82C182.334 19.8096 181.676 19.9284 181.096 20.1764C180.517 20.4244 180.061 20.7704 179.729 21.2146C179.398 21.6485 179.232 22.1393 179.232 22.6867C179.232 23.3376 179.481 23.8903 179.978 24.3448C180.485 24.7891 181.252 25.1351 182.277 25.3831L184.825 26.0183C186.254 26.3593 187.326 26.9016 188.041 27.6454C188.755 28.3892 189.113 29.3293 189.113 30.4656C189.113 31.4161 188.859 32.2683 188.352 33.0225C187.854 33.7662 187.129 34.3499 186.177 34.7735C185.224 35.1868 184.09 35.3934 182.775 35.3934C181.583 35.3934 180.547 35.2177 179.667 34.8665C178.798 34.5049 178.093 33.9781 177.554 33.2859C177.026 32.5937 176.69 31.7569 176.544 30.7756H178.766C178.942 31.6743 179.361 32.3614 180.025 32.8365C180.697 33.3014 181.599 33.5339 182.728 33.5339C183.567 33.5339 184.302 33.415 184.934 33.1775C185.576 32.9399 186.068 32.5989 186.41 32.1548C186.762 31.7001 186.938 31.1784 186.938 30.5896C186.938 29.9078 186.7 29.3396 186.223 28.8851C185.746 28.4202 185.017 28.0793 184.033 27.8623L181.453 27.2426C180.035 26.9016 178.952 26.3541 178.207 25.6C177.472 24.8355 177.103 23.9006 177.103 22.7951C177.103 21.8757 177.358 21.0494 177.865 20.3158C178.372 19.5824 179.071 19.0142 179.962 18.6113C180.863 18.1982 181.899 17.9915 183.069 17.9915C184.147 17.9915 185.1 18.1774 185.928 18.5494C186.767 18.911 187.435 19.4222 187.933 20.0835C188.44 20.7446 188.751 21.5091 188.864 22.3768H186.767Z" fill="black"/>
<path d="M28.5534 14.8852C31.0655 9.82248 34.8628 7.36417 39.5463 10.1919C44.499 13.182 45.5634 20.0303 41.511 24.1085L27.3111 37.8317L21.8818 33.0046L23.3944 27.6489L25.6403 21.6334L26.4213 19.6857L28.5534 14.8852Z" fill="url(#paint0_linear_28_81)"/>
<path d="M11.1671 20.3698L9.1123 20.3696L12.5901 27.8905L19.4832 36.1638L20.7209 37.3637L21.021 37.6399L21.3211 37.909L21.6586 38.1636L22.2212 38.5272L22.5962 38.709L23.5714 38.9635L24.7716 38.9999L25.3342 38.8908L25.8593 38.709L26.4594 38.4182L27.3595 37.8L34.0286 31.331L11.1671 20.3698Z" fill="url(#paint1_linear_28_81)"/>
<path d="M10.5373 10.2488C8.83557 10.5951 8.13327 11.3146 8.13327 11.3146L6.75569 12.5404L5.37597 14.0661C4.8068 14.9088 4.87 15.3769 5.66055 16.5627L12.4629 27.7034L16.6336 12.6306C16.6336 11.4783 15.7774 10.835 14.3252 10.5087C14.3252 10.5087 12.239 9.90232 10.5373 10.2488Z" fill="url(#paint2_linear_28_81)"/>
<defs>
<linearGradient id="paint0_linear_28_81" x1="32.9411" y1="9" x2="32.9411" y2="37.8317" gradientUnits="userSpaceOnUse">
<stop stop-color="#50A76C"/>
<stop offset="1" stop-color="#004842"/>
</linearGradient>
<linearGradient id="paint1_linear_28_81" x1="21.5704" y1="20.3696" x2="21.5704" y2="38.9999" gradientUnits="userSpaceOnUse">
<stop stop-color="#50A76C"/>
<stop offset="1" stop-color="#004842"/>
</linearGradient>
<linearGradient id="paint2_linear_28_81" x1="10.8168" y1="10.1418" x2="10.8168" y2="27.7034" gradientUnits="userSpaceOnUse">
<stop stop-color="#50A76C"/>
<stop offset="1" stop-color="#004842"/>
</linearGradient>
</defs>
</svg>